<svg id="Layer_1" data-name="Layer 1" xmlns="http://www.w3.org/2000/svg" viewBox="0 0 2000 735"><defs><style>.cls-1{fill:#3b8beb;}</style></defs><path class="cls-1" d="M451.77,245.81a122.73,122.73,0,0,1,47.93,9.46,122.59,122.59,0,0,1,65.79,65.31,123.72,123.72,0,0,1,.27,95.64,122.53,122.53,0,0,1-65.42,65.67,124.33,124.33,0,0,1-95.81.26,122.53,122.53,0,0,1-65.79-65.3,123.66,123.66,0,0,1-.26-95.64,122.44,122.44,0,0,1,65.42-65.67A122.54,122.54,0,0,1,451.77,245.81ZM375.16,368.93a77.63,77.63,0,0,0,6,29.94,80.6,80.6,0,0,0,16.61,24.35,77.77,77.77,0,0,0,24.48,16.44,76.85,76.85,0,0,0,30,5.87,78.09,78.09,0,0,0,30-6,80.85,80.85,0,0,0,24.38-16.59A77.91,77.91,0,0,0,523,398.48a77.13,77.13,0,0,0-16.59-84.27,80.89,80.89,0,0,0-24.48-16.44,78,78,0,0,0-30-5.87,76.46,76.46,0,0,0-76.74,77Z"/><path class="cls-1" d="M854.92,492.25l-46.17.13-.34-120a80.41,80.41,0,0,0-22.66-56.53,80.87,80.87,0,0,0-24.48-17.13,75.81,75.81,0,0,0-60,.17,77.63,77.63,0,0,0-24.38,17.27,80.3,80.3,0,0,0-22.35,56.65l.33,120-46.17.13-.33-120a130.5,130.5,0,0,1,35.72-90.69,124.85,124.85,0,0,1,39.17-27.5,119.67,119.67,0,0,1,95.8-.27,124.9,124.9,0,0,1,39.33,27.29,130.42,130.42,0,0,1,36.22,90.48Z"/><path class="cls-1" d="M308.09,245.14l.13,46.17-120,.34a80.41,80.41,0,0,0-56.53,22.66,80.87,80.87,0,0,0-17.13,24.48,75.81,75.81,0,0,0,.17,60A77.63,77.63,0,0,0,132,423.2a80.42,80.42,0,0,0,56.65,22.35l120-.33.13,46.17-120,.33A130.5,130.5,0,0,1,98.1,456a124.85,124.85,0,0,1-27.5-39.17A119.69,119.69,0,0,1,70.33,321,125,125,0,0,1,97.62,281.7a130.45,130.45,0,0,1,40.72-26.47,131.78,131.78,0,0,1,49.76-9.76Z"/><path class="cls-1" d="M1419,245l46.17-.13.33,120a80.52,80.52,0,0,0,22.67,56.53,80.54,80.54,0,0,0,24.48,17.12,75.73,75.73,0,0,0,60-.16A77.56,77.56,0,0,0,1597,421.05a80.42,80.42,0,0,0,22.35-56.66l-.33-120,46.17-.13.33,120A130.45,130.45,0,0,1,1629.84,455a124.72,124.72,0,0,1-39.17,27.51,119.8,119.8,0,0,1-95.81.27,125,125,0,0,1-39.32-27.29A130.49,130.49,0,0,1,1419.31,365Z"/><path class="cls-1" d="M934.44,384.32a77.09,77.09,0,0,0,75.42,61.56,75.62,75.62,0,0,0,41.93-12.31,76.93,76.93,0,0,0,27.9-32.13l41.75,19.63a121.5,121.5,0,0,1-44.64,51.17,120.06,120.06,0,0,1-66.94,19.82A122.49,122.49,0,0,1,962,482.44a122.65,122.65,0,0,1-65.6-65.61,124.06,124.06,0,0,1,0-95.8A122.65,122.65,0,0,1,962,255.42,123.08,123.08,0,0,1,1085.85,272a125.62,125.62,0,0,1,26.93,29.43,121.55,121.55,0,0,1,20.2,67.53,124.2,124.2,0,0,1-1,15.39ZM1009.86,292a77,77,0,0,0-70.61,46.17h141.21a77,77,0,0,0-70.6-46.17Z"/><path class="cls-1" d="M1894.63,320.55a61.33,61.33,0,0,0-8.22-15.11,47,47,0,0,0-14.83-12.64q-9.52-5.42-23.86-8.7t-35.31-3.29a156.23,156.23,0,0,0-22.73,1.64,93.23,93.23,0,0,0-20,5.09,37.4,37.4,0,0,0-14.18,9.2,19.8,19.8,0,0,0-5.32,14,19.35,19.35,0,0,0,1.61,7.71q1.6,3.78,7.09,7.39t16,6.57a205.94,205.94,0,0,0,27.89,5.25l55.46,8.54a185,185,0,0,1,35.14,8.54,95.27,95.27,0,0,1,26.28,14,56.56,56.56,0,0,1,16.44,19.86q5.64,11.5,5.64,26.6,0,21.36-9.19,36a72.58,72.58,0,0,1-25,24q-15.8,9.36-36.75,13.47a231.81,231.81,0,0,1-44.49,4.1q-37.72,0-62.07-8.21T1725.36,465q-14.5-11.16-21.11-22.66T1695.7,424l44.17-14.12a97.78,97.78,0,0,0,8.55,13.95q5.31,7.4,15.15,13.8t25.31,10.67q15.48,4.27,38.69,4.27a147,147,0,0,0,26.43-2.3,90,90,0,0,0,21.77-6.57,44.94,44.94,0,0,0,14.67-10.34,20.24,20.24,0,0,0,5.48-14q0-23.31-50.94-29.88l-56.1-7.88q-41-5.58-62.71-23t-21.76-45q0-17.73,6.77-30a63.42,63.42,0,0,1,17.41-20.36,80.56,80.56,0,0,1,23.69-12.31,168.59,168.59,0,0,1,25.15-6.24,174.38,174.38,0,0,1,21.93-2.3c6.55-.21,11.33-.33,14.34-.33q37.72,0,61.1,7.72T1911.39,268q13.23,10.5,18.7,21.18a153.46,153.46,0,0,1,7.74,16.91Z"/><path class="cls-1" d="M1261.72,399.66l-75.38,93.18h-60.11L1233.13,365l-98.77-119.36h58.81l68.55,84.67L1330,245.62h58.48L1289.34,365l106.25,127.86h-59.13Z"/></svg>