<?xml version="1.0" encoding="UTF-8" standalone="no"?>
<svg
   xmlns:dc="http://purl.org/dc/elements/1.1/"
   xmlns:cc="http://creativecommons.org/ns#"
   xmlns:rdf="http://www.w3.org/1999/02/22-rdf-syntax-ns#"
   xmlns:svg="http://www.w3.org/2000/svg"
   xmlns="http://www.w3.org/2000/svg"
   width="497.75397mm"
   height="66.378662mm"
   viewBox="0 0 497.75397 66.378661"
   version="1.1"
   id="svg970">
  <defs
     id="defs964">
    <style
       id="style2102">.cls-1{fill:#3b8beb;}</style>
  </defs>
  <metadata
     id="metadata967">
    <rdf:RDF>
      <cc:Work
         rdf:about="">
        <dc:format>image/svg+xml</dc:format>
        <dc:type
           rdf:resource="http://purl.org/dc/dcmitype/StillImage" />
        <dc:title></dc:title>
      </cc:Work>
    </rdf:RDF>
  </metadata>
  <g
     id="layer1"
     transform="translate(169.50199,-81.715429)">
    <g
       id="g2133"
       transform="matrix(0.26458333,0,0,0.26458333,-185.49741,17.670388)">
      <path
         class="cls-1"
         d="m 451.77,245.81 a 122.73,122.73 0 0 1 47.93,9.46 122.59,122.59 0 0 1 65.79,65.31 123.72,123.72 0 0 1 0.27,95.64 122.53,122.53 0 0 1 -65.42,65.67 124.33,124.33 0 0 1 -95.81,0.26 122.53,122.53 0 0 1 -65.79,-65.3 123.66,123.66 0 0 1 -0.26,-95.64 122.44,122.44 0 0 1 65.42,-65.67 122.54,122.54 0 0 1 47.87,-9.73 z m -76.61,123.12 a 77.63,77.63 0 0 0 6,29.94 80.6,80.6 0 0 0 16.61,24.35 77.77,77.77 0 0 0 24.48,16.44 76.85,76.85 0 0 0 30,5.87 78.09,78.09 0 0 0 30,-6 80.85,80.85 0 0 0 24.38,-16.59 77.91,77.91 0 0 0 16.37,-24.46 77.13,77.13 0 0 0 -16.59,-84.27 80.89,80.89 0 0 0 -24.48,-16.44 78,78 0 0 0 -30,-5.87 76.46,76.46 0 0 0 -76.74,77 z"
         id="path2106" />
      <path
         class="cls-1"
         d="m 854.92,492.25 -46.17,0.13 -0.34,-120 a 80.41,80.41 0 0 0 -22.66,-56.53 80.87,80.87 0 0 0 -24.48,-17.13 75.81,75.81 0 0 0 -60,0.17 77.63,77.63 0 0 0 -24.38,17.27 80.3,80.3 0 0 0 -22.35,56.65 l 0.33,120 -46.17,0.13 -0.33,-120 a 130.5,130.5 0 0 1 35.72,-90.69 124.85,124.85 0 0 1 39.17,-27.5 119.67,119.67 0 0 1 95.8,-0.27 124.9,124.9 0 0 1 39.33,27.29 130.42,130.42 0 0 1 36.22,90.48 z"
         id="path2108" />
      <path
         class="cls-1"
         d="m 308.09,245.14 0.13,46.17 -120,0.34 a 80.41,80.41 0 0 0 -56.53,22.66 80.87,80.87 0 0 0 -17.13,24.48 75.81,75.81 0 0 0 0.17,60 77.63,77.63 0 0 0 17.27,24.41 80.42,80.42 0 0 0 56.65,22.35 l 120,-0.33 0.13,46.17 -120,0.33 A 130.5,130.5 0 0 1 98.1,456 124.85,124.85 0 0 1 70.6,416.83 119.69,119.69 0 0 1 70.33,321 a 125,125 0 0 1 27.29,-39.3 130.45,130.45 0 0 1 40.72,-26.47 131.78,131.78 0 0 1 49.76,-9.76 z"
         id="path2110" />
      <path
         class="cls-1"
         d="m 1419,245 46.17,-0.13 0.33,120 a 80.52,80.52 0 0 0 22.67,56.53 80.54,80.54 0 0 0 24.48,17.12 75.73,75.73 0 0 0 60,-0.16 77.56,77.56 0 0 0 24.35,-17.31 80.42,80.42 0 0 0 22.35,-56.66 l -0.33,-120 46.17,-0.13 0.33,120 a 130.45,130.45 0 0 1 -35.68,90.74 124.72,124.72 0 0 1 -39.17,27.51 119.8,119.8 0 0 1 -95.81,0.27 125,125 0 0 1 -39.32,-27.29 130.49,130.49 0 0 1 -36.23,-90.49 z"
         id="path2112" />
      <path
         class="cls-1"
         d="m 934.44,384.32 a 77.09,77.09 0 0 0 75.42,61.56 75.62,75.62 0 0 0 41.93,-12.31 76.93,76.93 0 0 0 27.9,-32.13 l 41.75,19.63 a 121.5,121.5 0 0 1 -44.64,51.17 120.06,120.06 0 0 1 -66.94,19.82 122.49,122.49 0 0 1 -47.86,-9.62 122.65,122.65 0 0 1 -65.6,-65.61 124.06,124.06 0 0 1 0,-95.8 122.65,122.65 0 0 1 65.6,-65.61 123.08,123.08 0 0 1 123.85,16.58 125.62,125.62 0 0 1 26.93,29.43 121.55,121.55 0 0 1 20.2,67.53 124.2,124.2 0 0 1 -1,15.39 z M 1009.86,292 a 77,77 0 0 0 -70.61,46.17 h 141.21 A 77,77 0 0 0 1009.86,292 Z"
         id="path2114" />
      <path
         class="cls-1"
         d="m 1894.63,320.55 a 61.33,61.33 0 0 0 -8.22,-15.11 47,47 0 0 0 -14.83,-12.64 q -9.52,-5.42 -23.86,-8.7 -14.34,-3.28 -35.31,-3.29 a 156.23,156.23 0 0 0 -22.73,1.64 93.23,93.23 0 0 0 -20,5.09 37.4,37.4 0 0 0 -14.18,9.2 19.8,19.8 0 0 0 -5.32,14 19.35,19.35 0 0 0 1.61,7.71 q 1.6,3.78 7.09,7.39 5.49,3.61 16,6.57 a 205.94,205.94 0 0 0 27.89,5.25 l 55.46,8.54 a 185,185 0 0 1 35.14,8.54 95.27,95.27 0 0 1 26.28,14 56.56,56.56 0 0 1 16.44,19.86 q 5.64,11.5 5.64,26.6 0,21.36 -9.19,36 a 72.58,72.58 0 0 1 -25,24 q -15.8,9.36 -36.75,13.47 a 231.81,231.81 0 0 1 -44.49,4.1 q -37.72,0 -62.07,-8.21 -24.35,-8.21 -38.87,-19.56 -14.5,-11.16 -21.11,-22.66 -6.61,-11.5 -8.55,-18.34 l 44.17,-14.12 a 97.78,97.78 0 0 0 8.55,13.95 q 5.31,7.4 15.15,13.8 9.84,6.4 25.31,10.67 15.48,4.27 38.69,4.27 a 147,147 0 0 0 26.43,-2.3 90,90 0 0 0 21.77,-6.57 44.94,44.94 0 0 0 14.67,-10.34 20.24,20.24 0 0 0 5.48,-14 q 0,-23.31 -50.94,-29.88 l -56.1,-7.88 q -41,-5.58 -62.71,-23 -21.71,-17.42 -21.76,-45 0,-17.73 6.77,-30 a 63.42,63.42 0 0 1 17.41,-20.36 80.56,80.56 0 0 1 23.69,-12.31 168.59,168.59 0 0 1 25.15,-6.24 174.38,174.38 0 0 1 21.93,-2.3 c 6.55,-0.21 11.33,-0.33 14.34,-0.33 q 37.72,0 61.1,7.72 23.38,7.72 36.59,18.22 13.23,10.5 18.7,21.18 a 153.46,153.46 0 0 1 7.74,16.91 z"
         id="path2116" />
      <path
         class="cls-1"
         d="m 1261.72,399.66 -75.38,93.18 h -60.11 L 1233.13,365 1134.36,245.64 h 58.81 l 68.55,84.67 68.28,-84.69 h 58.48 L 1289.34,365 1395.59,492.86 h -59.13 z"
         id="path2118" />
    </g>
  </g>
</svg>
