<?xml version="1.0" standalone="no"?>
<!DOCTYPE svg PUBLIC "-//W3C//DTD SVG 20010904//EN"
 "http://www.w3.org/TR/2001/REC-SVG-20010904/DTD/svg10.dtd">
<svg version="1.0" xmlns="http://www.w3.org/2000/svg"
 width="4750.000000pt" height="5427.000000pt" viewBox="0 0 4750.000000 5427.000000"
 preserveAspectRatio="xMidYMid meet">

<g transform="translate(0.000000,5427.000000) scale(0.100000,-0.100000)"
fill="#000000" stroke="none">
<path d="M23413 54259 c-925 -52 -1783 -214 -2643 -499 -1700 -563 -3266
-1602 -4501 -2985 -1445 -1620 -2309 -3782 -2427 -6075 -11 -228 -7 -1056 6
-1240 13 -175 50 -562 57 -595 2 -11 7 -47 10 -80 17 -165 67 -467 126 -760
314 -1554 986 -3009 1934 -4185 898 -1115 2076 -2058 3394 -2716 238 -118 258
-127 496 -231 1027 -448 2209 -742 3280 -818 44 -3 94 -8 110 -10 66 -9 434
-20 685 -20 249 0 647 12 673 20 7 2 62 6 122 10 61 4 126 8 145 10 19 3 85 9
145 15 261 27 700 96 985 156 1057 222 2074 612 3020 1157 582 335 1212 785
1703 1215 104 91 119 101 135 90 84 -61 414 -319 522 -408 780 -643 1504
-1087 2385 -1465 928 -398 2022 -679 2995 -770 36 -3 76 -8 90 -10 14 -2 72
-7 130 -10 58 -3 121 -8 140 -10 144 -17 570 -27 870 -21 190 3 356 8 370 10
14 2 77 7 140 10 108 6 277 20 380 31 143 16 155 18 360 45 1100 148 2221 505
3195 1018 450 237 649 382 807 586 76 99 147 235 174 336 27 101 25 292 -4
394 -78 270 -273 513 -494 614 -140 64 -338 86 -513 58 -196 -33 -321 -83
-725 -293 -570 -296 -1201 -537 -1825 -698 -492 -127 -985 -204 -1555 -244
-129 -9 -1008 -6 -1115 4 -758 71 -1176 142 -1715 291 -1005 279 -1924 753
-2750 1418 -239 192 -623 541 -618 561 2 5 69 109 149 230 602 908 1078 1926
1364 2919 117 408 223 876 280 1236 20 129 73 548 80 640 4 41 8 85 10 97 2
12 6 77 10 145 4 68 9 134 12 148 9 44 12 961 3 1085 -5 66 -11 167 -15 225
-3 58 -8 119 -10 135 -2 17 -7 62 -10 100 -26 295 -86 695 -156 1040 -297
1460 -922 2855 -1805 4031 -865 1152 -1911 2061 -3219 2797 -196 110 -685 351
-895 442 -1106 478 -2229 747 -3415 819 -230 14 -872 17 -1082 5z m812 -1849
c189 -4 507 -25 670 -45 17 -2 55 -6 85 -10 1125 -133 2246 -520 3200 -1103
1011 -618 1887 -1451 2552 -2427 601 -882 1022 -1864 1253 -2925 73 -334 141
-773 160 -1040 4 -47 8 -96 11 -110 26 -166 25 -988 -2 -1311 -117 -1405 -564
-2679 -1312 -3736 -48 -68 -92 -123 -97 -123 -12 0 -51 23 -705 425 -731 450
-1014 612 -1410 809 -1334 664 -2723 1056 -4080 1150 -432 30 -1154 26 -1485
-9 -22 -2 -67 -7 -100 -10 -327 -30 -712 -86 -1060 -156 -688 -138 -1435 -370
-2135 -662 -613 -256 -951 -455 -1181 -695 -145 -150 -224 -282 -271 -449 -28
-102 -30 -266 -4 -368 64 -247 261 -491 481 -596 132 -63 187 -74 375 -73 146
0 178 3 280 28 162 40 297 88 680 243 184 74 462 186 617 249 589 237 1042
386 1423 468 339 72 824 140 1165 162 50 3 104 7 120 10 17 3 201 6 410 8 365
4 588 -5 897 -33 365 -34 860 -120 1215 -211 1118 -287 2158 -781 3180 -1512
152 -109 200 -154 253 -240 l29 -46 -122 -119 c-495 -483 -1016 -855 -1662
-1189 -640 -330 -1388 -586 -2132 -728 -327 -63 -672 -108 -993 -130 -41 -3
-115 -9 -165 -12 -130 -10 -611 -11 -815 -2 -1691 72 -3340 668 -4715 1703
-445 335 -773 636 -1123 1030 -1192 1340 -1922 3168 -2029 5086 -10 173 -10
795 0 968 95 1692 678 3268 1661 4491 1043 1297 2412 2263 3951 2790 650 222
1429 385 2035 425 47 3 98 8 113 10 15 3 132 8 260 11 128 4 233 8 235 9 1 1
33 1 70 0 37 -2 135 -4 217 -5z"/>
<path d="M10000 54258 c-3 -3 -90 -8 -195 -12 -166 -5 -456 -25 -595 -41 -25
-3 -88 -10 -140 -15 -152 -16 -441 -58 -625 -91 -1752 -308 -3356 -1023 -4700
-2094 -556 -443 -1116 -1001 -1564 -1560 -884 -1102 -1520 -2381 -1871 -3760
-108 -425 -212 -999 -250 -1385 -6 -63 -13 -125 -15 -138 -2 -13 -12 -128 -21
-255 -13 -170 -18 -351 -19 -677 0 -473 11 -771 40 -1035 2 -22 7 -67 10 -100
73 -720 226 -1442 457 -2145 737 -2249 2261 -4169 4288 -5402 887 -540 1840
-937 2855 -1189 419 -104 996 -206 1380 -244 33 -4 96 -10 140 -15 44 -5 130
-12 190 -16 61 -3 118 -8 128 -10 53 -10 469 -19 862 -19 442 0 656 6 825 25
47 5 112 12 145 15 132 13 168 18 360 46 989 148 2011 483 3000 985 416 211
603 322 726 431 221 195 320 401 320 663 0 162 -58 359 -153 517 -81 136 -247
274 -398 332 -113 44 -200 59 -345 59 -270 0 -411 -49 -960 -335 -466 -243
-1107 -488 -1706 -653 -517 -142 -1110 -244 -1594 -275 -49 -3 -121 -8 -159
-11 -95 -7 -628 -7 -756 0 -201 12 -329 23 -530 47 -883 106 -1771 379 -2628
808 -2267 1135 -3855 3078 -4436 5427 -125 508 -188 924 -226 1504 -8 126 -5
891 4 965 3 22 10 104 16 183 6 78 13 150 14 160 2 9 7 49 11 87 32 322 136
858 237 1230 284 1045 788 2088 1410 2917 1118 1489 2883 2616 4758 3037 334
75 730 138 975 157 50 3 93 8 96 10 15 8 364 19 614 19 241 0 476 -8 575 -20
19 -3 60 -7 90 -10 560 -55 1129 -187 1830 -423 329 -111 629 -223 1295 -482
916 -356 977 -375 1220 -374 160 0 214 12 336 75 227 118 432 390 506 672 22
83 21 252 -1 337 -57 220 -228 434 -481 602 -190 125 -736 417 -1052 562 -816
375 -1623 628 -2463 775 -218 38 -547 81 -730 96 -41 3 -88 8 -105 10 -16 2
-88 7 -160 10 -71 4 -141 9 -155 11 -39 6 -674 17 -680 12z"/>
<path d="M37150 54247 c-3 -2 -66 -7 -140 -11 -596 -28 -1327 -168 -2035 -388
-494 -153 -1170 -432 -1755 -724 -439 -220 -712 -382 -840 -500 -305 -283
-372 -695 -169 -1049 137 -240 368 -429 593 -485 154 -39 366 -22 538 43 62
24 332 156 424 208 21 12 158 81 304 154 955 478 1904 778 2800 885 91 11 208
22 260 25 52 4 102 9 110 12 27 8 642 11 765 3 680 -46 1233 -165 2045 -439
368 -124 575 -200 1305 -484 990 -384 1015 -391 1315 -392 154 0 185 3 255 23
270 78 457 279 554 594 101 330 4 658 -272 925 -114 110 -205 174 -422 297
-568 323 -1279 633 -1910 833 -777 246 -1688 410 -2485 448 -74 4 -153 9 -175
11 -59 6 -1059 16 -1065 11z"/>
<path d="M19178 29983 l-28 -4 0 -3360 0 -3359 350 0 350 0 0 365 c0 201 3
365 8 364 4 0 32 -39 62 -87 36 -57 97 -129 175 -208 297 -300 646 -470 1080
-529 144 -19 491 -14 625 9 221 38 402 97 595 193 640 318 1075 984 1141 1748
9 104 9 336 0 450 -35 432 -206 869 -466 1194 -190 237 -411 413 -685 546
-314 153 -591 215 -980 220 -373 5 -605 -44 -901 -193 -199 -100 -364 -223
-537 -401 -60 -61 -110 -111 -113 -111 -2 0 -5 712 -6 1583 l-3 1582 -320 1
c-176 1 -332 -1 -347 -3z m2377 -3108 c97 -14 276 -64 362 -102 475 -210 778
-617 858 -1151 18 -124 21 -413 5 -532 -60 -451 -284 -825 -631 -1056 -185
-123 -354 -187 -604 -229 -139 -23 -396 -14 -558 20 -489 101 -888 461 -1050
946 -80 237 -107 525 -77 794 73 629 464 1105 1045 1271 121 35 282 52 445 49
85 -2 178 -7 205 -10z"/>
<path d="M33345 29968 c-3 -13 -4 -726 -3 -1586 2 -1037 0 -1562 -7 -1561 -5
0 -35 29 -65 64 -118 137 -315 297 -497 402 -283 163 -570 238 -930 242 -636
7 -1199 -215 -1599 -631 -293 -304 -485 -693 -565 -1143 -27 -153 -37 -511
-20 -678 73 -685 425 -1271 970 -1616 189 -120 455 -227 671 -270 393 -78 839
-45 1175 89 350 139 674 402 830 673 15 26 30 46 32 43 3 -3 6 -168 7 -368 l1
-363 348 -3 347 -2 0 3359 0 3359 -31 6 c-17 3 -173 6 -345 6 l-314 0 -5 -22z
m-1196 -3102 c365 -68 669 -251 880 -530 211 -279 311 -596 311 -994 2 -670
-316 -1192 -872 -1433 -382 -166 -877 -156 -1253 26 -276 133 -499 351 -639
623 -124 243 -176 476 -177 787 -1 457 147 841 431 1125 114 114 224 193 362
264 156 79 328 129 488 143 36 3 67 7 69 10 11 9 324 -7 400 -21z"/>
<path d="M3405 29699 c-38 -4 -97 -10 -130 -14 -79 -8 -256 -40 -363 -65 -415
-99 -855 -315 -1204 -592 -134 -106 -383 -355 -487 -487 -331 -419 -557 -925
-654 -1466 -45 -248 -52 -335 -52 -645 0 -322 6 -418 35 -615 85 -554 326
-1110 669 -1545 100 -125 363 -389 479 -480 506 -395 1069 -619 1702 -679 52
-5 196 -9 320 -9 344 1 584 29 876 103 505 128 917 362 1255 713 96 99 240
269 238 282 0 6 -546 464 -557 467 -4 1 -23 -19 -42 -44 -53 -72 -255 -271
-350 -346 -385 -306 -803 -458 -1325 -483 -446 -21 -895 86 -1273 303 -661
379 -1105 1090 -1213 1943 -18 140 -18 584 0 710 112 805 494 1454 1101 1872
381 263 811 396 1280 395 393 0 814 -124 1116 -328 154 -104 316 -254 412
-381 20 -27 40 -48 44 -48 7 0 138 93 498 355 74 54 139 101 144 106 24 21
-257 316 -422 442 -464 355 -1117 552 -1817 546 -115 -1 -241 -6 -280 -10z"/>
<path d="M28021 29534 c-84 -22 -150 -63 -221 -134 -106 -106 -150 -213 -150
-360 0 -189 101 -365 256 -443 125 -63 307 -74 443 -27 175 62 303 239 314
437 14 244 -146 467 -378 528 -73 19 -192 18 -264 -1z"/>
<path d="M8315 27515 c-532 -63 -1018 -276 -1309 -574 l-49 -50 26 -33 c15
-18 112 -120 215 -227 l189 -194 79 63 c251 200 552 324 909 375 79 11 362 13
445 4 206 -24 420 -105 545 -206 120 -98 215 -249 255 -406 31 -125 51 -374
32 -403 -5 -8 -128 -13 -392 -18 -212 -3 -407 -8 -435 -11 -27 -2 -122 -9
-210 -15 -315 -21 -565 -68 -835 -156 -323 -106 -548 -247 -750 -470 -187
-206 -270 -483 -257 -857 6 -175 20 -248 76 -393 70 -181 254 -402 431 -517
279 -180 571 -262 975 -274 170 -4 220 -2 335 15 359 54 616 186 875 446 72
72 150 161 175 198 25 37 48 68 53 68 4 0 7 -64 8 -142 1 -191 10 -309 31
-420 l11 -58 335 0 335 0 -6 48 c-3 26 -11 81 -16 122 -36 278 -38 366 -40
1468 -1 579 -4 1085 -7 1125 -29 367 -124 680 -275 912 -63 96 -229 265 -319
324 -186 121 -405 197 -717 246 -134 22 -569 28 -718 10z m1341 -2281 c11 -42
-4 -350 -21 -449 -31 -175 -66 -285 -132 -420 -172 -347 -494 -565 -906 -616
-112 -14 -331 -6 -445 16 -280 54 -482 181 -565 355 -55 116 -71 207 -64 369
5 152 29 238 92 337 103 161 311 283 605 353 271 65 419 77 1002 80 l428 1 6
-26z"/>
<path d="M13475 27524 c-261 -28 -562 -141 -773 -291 -162 -116 -333 -304
-400 -440 -15 -29 -30 -53 -34 -53 -4 0 -8 46 -9 103 -1 56 -3 134 -5 172 -7
140 -13 311 -14 358 l0 47 -331 0 -331 0 7 -202 c4 -112 9 -206 10 -209 4 -6
16 -284 20 -434 1 -49 2 -816 3 -1702 l2 -1613 345 0 345 0 2 1060 c1 583 2
1073 3 1089 10 164 19 252 36 346 109 623 419 994 922 1100 309 65 593 33 772
-86 93 -62 153 -135 210 -253 68 -140 116 -352 130 -572 4 -54 8 -115 10 -134
1 -19 3 -601 4 -1292 l1 -1258 350 0 350 0 0 1284 c0 1210 1 1289 19 1387 116
646 616 1027 1238 945 441 -58 705 -318 795 -781 21 -109 22 -128 25 -1472 l4
-1363 350 0 350 0 -4 1408 c-2 774 -7 1425 -11 1447 -3 22 -11 78 -17 125
-109 866 -616 1290 -1541 1290 -464 0 -748 -115 -1049 -427 -89 -92 -210 -245
-254 -320 -11 -18 -22 -33 -25 -33 -3 0 -15 20 -28 44 -100 188 -163 275 -274
381 -174 166 -409 281 -678 331 -83 16 -434 27 -525 18z"/>
<path d="M26451 27519 c-270 -32 -573 -156 -790 -323 -134 -104 -279 -270
-346 -398 -16 -32 -33 -58 -37 -58 -5 0 -8 48 -9 108 -1 59 -2 127 -4 152 -6
74 -14 291 -15 358 l0 62 -331 0 -332 0 7 -172 c3 -95 11 -240 16 -323 17
-255 19 -451 19 -2082 l1 -1583 345 0 345 0 1 1063 c0 584 2 1073 4 1087 2 14
6 70 9 125 7 124 39 320 71 434 140 497 412 765 858 848 143 26 423 23 547 -5
110 -26 112 -26 109 -9 -3 13 11 282 16 307 3 15 16 259 19 334 l1 40 -60 19
c-72 23 -312 31 -444 16z"/>
<path d="M37055 27523 c-757 -60 -1359 -412 -1685 -986 -143 -251 -237 -545
-274 -854 -20 -170 -20 -497 -1 -648 124 -961 810 -1643 1810 -1801 140 -22
521 -27 640 -9 276 43 559 147 756 278 157 104 312 260 428 430 17 26 36 47
41 47 12 0 5 -686 -9 -820 -48 -447 -175 -754 -411 -990 -189 -189 -443 -315
-735 -365 -220 -37 -528 -41 -735 -11 -417 63 -760 243 -1115 587 l-113 109
-241 -276 c-133 -152 -244 -281 -247 -288 -8 -22 225 -223 391 -338 366 -254
808 -403 1325 -447 134 -11 506 -11 630 0 238 21 469 68 663 135 141 48 363
161 477 241 122 87 336 301 423 423 150 213 274 519 336 830 61 309 60 252 60
2553 l1 2097 -347 0 -348 0 2 -321 c1 -177 -1 -338 -6 -358 l-7 -36 -19 35
c-38 74 -142 216 -214 292 -237 253 -588 425 -981 481 -85 13 -387 19 -495 10z
m425 -645 c346 -35 654 -180 878 -412 110 -114 172 -201 242 -341 90 -176 151
-389 165 -575 3 -41 8 -102 11 -135 7 -92 -21 -346 -54 -475 -144 -565 -577
-968 -1147 -1066 -109 -19 -362 -26 -465 -13 -610 77 -1119 548 -1251 1159
-32 143 -34 491 -5 645 63 341 237 658 474 868 307 273 704 391 1152 345z"/>
<path d="M42345 27515 c-744 -95 -1337 -525 -1635 -1185 -93 -208 -164 -471
-189 -702 -14 -124 -14 -421 -1 -561 31 -322 148 -683 311 -956 232 -387 603
-688 1038 -842 357 -126 838 -154 1281 -74 516 93 872 298 1221 703 49 56 89
106 89 111 0 10 -505 406 -518 406 -4 0 -41 -37 -81 -83 -184 -209 -430 -378
-663 -455 -102 -34 -252 -65 -368 -76 -132 -13 -380 -6 -470 13 -173 37 -344
110 -490 209 -107 74 -284 253 -355 362 -140 214 -232 459 -251 671 l-7 74
1676 0 c1518 0 1675 1 1681 16 14 36 1 420 -20 594 -94 779 -488 1356 -1109
1625 -158 68 -266 100 -470 136 -146 27 -511 34 -670 14z m565 -650 c275 -52
465 -149 632 -323 150 -156 235 -315 288 -537 17 -69 33 -196 34 -260 0 -20
-7 -20 -1302 -23 -1301 -2 -1302 -2 -1302 18 0 39 42 215 72 299 64 181 149
320 278 455 216 226 465 345 806 386 106 12 397 4 494 -15z"/>
<path d="M27810 25340 l0 -2080 345 0 c269 0 345 3 345 13 0 6 1 942 3 2080
l2 2067 -347 0 -348 0 0 -2080z"/>
<path d="M3385 19834 c-660 -70 -1252 -317 -1752 -731 -117 -97 -321 -304
-416 -423 -390 -488 -638 -1098 -694 -1710 -10 -110 -10 -580 0 -689 68 -742
410 -1462 940 -1978 466 -453 1064 -754 1712 -859 254 -42 272 -42 2288 -43
l1937 -1 0 320 0 320 -975 0 c-536 0 -975 3 -975 8 1 4 53 33 118 64 217 106
382 229 583 436 425 434 702 1003 794 1627 9 61 18 124 21 140 11 60 13 512 4
610 -70 714 -327 1324 -779 1847 -475 551 -1191 937 -1931 1042 -58 8 -125 18
-150 21 -96 14 -594 13 -725 -1z m732 -703 c261 -39 441 -95 678 -211 717
-349 1205 -1013 1344 -1830 29 -167 36 -271 35 -490 -2 -534 -146 -1010 -438
-1450 -308 -461 -755 -792 -1290 -954 -112 -34 -277 -69 -391 -82 -33 -3 -69
-8 -80 -11 -42 -8 -414 -4 -505 7 -309 35 -530 99 -795 230 -479 237 -841 601
-1089 1097 -147 294 -230 586 -265 928 -10 93 -7 510 4 580 59 381 116 575
250 853 197 408 507 758 878 991 324 204 674 324 1052 360 153 14 454 6 612
-18z"/>
<path d="M23010 18150 l0 -590 -455 0 -455 0 0 -279 c0 -154 3 -286 6 -295 5
-14 55 -16 455 -16 l449 0 0 -1192 c0 -1181 5 -1409 35 -1622 47 -334 161
-545 370 -686 121 -81 231 -123 408 -157 130 -25 524 -24 687 0 138 21 315 66
396 100 l59 25 -1 79 c0 43 -4 173 -9 288 -4 116 -9 223 -9 238 -1 32 2 32
-103 -12 -218 -91 -530 -124 -732 -76 -189 45 -320 187 -377 410 -16 65 -18
159 -21 1338 l-4 1267 609 0 c547 0 610 2 616 16 3 9 6 141 6 295 l0 279 -615
0 -615 0 0 590 0 590 -350 0 -350 0 0 -590z"/>
<path d="M14415 17655 c-382 -44 -768 -175 -1031 -351 -98 -65 -223 -165 -283
-227 l-44 -46 26 -33 c15 -18 111 -120 215 -227 l188 -193 98 76 c167 131 327
214 535 280 269 85 580 114 851 80 165 -21 382 -109 495 -201 192 -156 286
-382 287 -690 1 -68 -1 -125 -3 -127 -2 -2 -179 -6 -394 -9 -214 -4 -403 -8
-420 -11 -16 -3 -86 -7 -155 -11 -247 -13 -532 -56 -740 -112 -384 -104 -630
-236 -853 -459 -141 -141 -224 -287 -275 -479 -44 -165 -56 -442 -27 -607 107
-617 710 -1018 1530 -1018 459 0 818 139 1125 437 93 89 207 223 239 281 5 9
12 15 15 12 2 -3 6 -77 7 -165 2 -170 10 -274 29 -386 l12 -69 334 0 c311 0
334 1 334 18 0 9 -6 60 -14 112 -13 86 -30 267 -41 425 -2 33 -4 535 -5 1115
-2 1118 -4 1189 -51 1420 -29 144 -87 317 -148 439 -214 434 -592 660 -1210
726 -156 17 -479 16 -626 0z m1338 -2431 c-3 -322 -43 -506 -159 -734 -166
-327 -473 -540 -859 -596 -184 -26 -464 -6 -625 46 -339 109 -490 311 -490
652 1 387 214 609 697 727 267 65 415 77 993 80 l445 2 -2 -177z"/>
<path d="M19512 17654 c-269 -38 -549 -155 -761 -318 -134 -104 -279 -270
-346 -398 -16 -32 -33 -58 -37 -58 -5 0 -8 55 -9 123 0 67 -2 133 -4 147 -4
27 -14 284 -15 363 l0 47 -331 0 -332 0 8 -192 c4 -106 10 -233 15 -283 4 -49
9 -882 10 -1850 2 -968 3 -1777 3 -1797 l1 -38 348 0 348 0 1 1058 c1 581 2
1075 4 1097 2 22 6 81 10 132 7 108 35 275 64 390 140 546 481 868 991 937
203 27 439 10 593 -43 332 -115 529 -429 571 -906 3 -33 5 -646 6 -1362 l0
-1303 350 0 350 0 -3 1398 c-2 768 -6 1411 -10 1427 -3 17 -11 71 -17 120 -13
111 -62 313 -100 418 -165 452 -539 768 -1025 866 -210 42 -487 52 -683 25z"/>
<path d="M32542 17659 c-179 -24 -407 -98 -567 -184 -235 -127 -471 -354 -563
-542 -15 -29 -30 -53 -34 -53 -4 0 -8 44 -8 98 0 53 -3 140 -6 192 -9 170 -12
234 -13 313 l-1 77 -331 0 -331 0 7 -207 c4 -115 9 -211 11 -214 3 -5 10 -174
19 -429 1 -52 3 -818 4 -1702 l1 -1608 345 0 345 0 1 1058 c1 581 2 1071 4
1088 1 17 5 75 9 130 53 749 409 1225 996 1330 103 18 342 26 426 14 171 -26
335 -111 420 -219 66 -82 129 -219 163 -351 33 -130 47 -233 65 -470 3 -30 5
-623 5 -1317 l1 -1263 350 0 349 0 1 1283 c0 1214 1 1288 19 1387 114 632 600
1016 1203 951 249 -27 423 -104 574 -255 146 -147 224 -322 264 -593 19 -133
20 -185 20 -1455 l0 -1318 351 0 350 0 -4 1408 c-2 774 -6 1421 -10 1437 -3
17 -11 73 -17 125 -56 470 -243 831 -535 1034 -95 66 -290 159 -400 190 -192
55 -319 70 -590 70 -283 1 -364 -9 -544 -70 -189 -63 -345 -168 -522 -350 -89
-93 -210 -246 -254 -321 -11 -18 -22 -33 -25 -33 -3 0 -18 24 -33 53 -97 178
-144 245 -242 343 -55 55 -128 119 -162 142 -145 98 -360 185 -538 217 -108
20 -463 29 -573 14z"/>
<path d="M8161 16168 c0 -812 5 -1428 10 -1478 15 -132 57 -325 94 -438 48
-142 95 -239 169 -352 165 -248 395 -420 694 -520 194 -65 327 -84 597 -84
205 -1 243 2 345 23 222 46 415 126 596 246 177 118 348 299 430 455 16 30 30
57 32 59 9 15 13 -27 18 -185 3 -98 7 -195 9 -214 2 -19 4 -90 4 -157 l1 -123
330 0 330 0 0 113 c0 103 -13 356 -25 482 -2 28 -5 841 -5 1808 l0 1757 -350
0 -349 0 -4 -1147 c-3 -1222 -3 -1200 -53 -1448 -24 -119 -78 -277 -133 -390
-170 -348 -444 -555 -821 -620 -115 -20 -349 -27 -445 -14 -484 67 -738 395
-779 1009 -3 36 -5 638 -5 1338 l-1 1272 -345 0 -345 0 1 -1392z"/>
<path d="M25793 16118 c3 -1436 3 -1444 25 -1558 78 -406 219 -690 446 -896
291 -263 681 -387 1171 -371 325 11 600 97 860 272 186 125 321 265 421 438
25 43 47 77 49 75 2 -1 7 -86 10 -188 4 -102 9 -198 10 -215 2 -16 3 -85 4
-152 l1 -123 332 0 331 0 -6 203 c-6 184 -12 293 -22 402 -2 22 -4 831 -4
1798 l-1 1757 -350 0 -350 0 -1 -1087 c0 -599 -2 -1108 -5 -1133 -2 -25 -9
-92 -15 -150 -45 -452 -229 -828 -504 -1033 -212 -157 -434 -221 -765 -220
-167 0 -195 3 -285 26 -258 68 -417 201 -534 447 -74 155 -110 315 -125 550
-3 36 -5 635 -5 1333 l-1 1267 -345 0 -346 0 4 -1442z"/>
<path d="M3355 9965 c-522 -54 -991 -221 -1430 -510 -317 -209 -636 -524 -845
-835 -268 -398 -438 -831 -525 -1335 -35 -207 -40 -275 -40 -610 0 -297 3
-360 23 -503 152 -1101 773 -1994 1712 -2463 352 -176 643 -262 1100 -324 78
-11 591 -14 690 -4 615 59 1101 233 1513 542 137 102 388 348 481 469 l58 77
-28 25 c-16 13 -141 119 -279 235 -137 116 -252 211 -255 211 -3 -1 -21 -22
-40 -48 -19 -25 -91 -103 -160 -172 -250 -251 -541 -434 -857 -540 -234 -78
-435 -110 -718 -115 -446 -8 -807 79 -1180 284 -640 351 -1090 1020 -1224
1817 -203 1210 350 2387 1356 2888 314 157 593 225 948 231 368 7 674 -62 990
-222 228 -116 456 -302 594 -485 19 -27 39 -48 44 -48 7 0 616 437 641 461 16
14 -175 231 -307 348 -176 156 -387 290 -599 380 -238 101 -541 186 -803 226
-229 34 -628 44 -860 20z"/>
<path d="M33641 9804 c-84 -22 -150 -63 -222 -135 -99 -99 -149 -216 -149
-350 0 -246 141 -434 370 -494 93 -25 241 -16 334 19 165 62 270 192 301 372
32 183 -19 339 -153 466 -98 94 -211 138 -346 137 -45 0 -105 -7 -135 -15z"/>
<path d="M30580 8280 l0 -590 -452 -2 -453 -3 -2 -292 -2 -293 455 0 454 0 1
-1202 c0 -662 2 -1246 5 -1298 7 -130 33 -361 50 -442 73 -352 285 -587 614
-682 126 -36 226 -48 435 -51 303 -5 559 32 765 108 l85 32 -1 70 c-1 154 -16
531 -21 548 -2 10 -10 16 -16 13 -276 -121 -557 -163 -787 -116 -113 23 -171
52 -247 123 -49 46 -73 79 -103 141 -78 162 -73 79 -77 1494 l-4 1262 611 0
c481 0 610 3 610 13 0 6 1 139 3 295 l2 282 -612 0 -613 0 0 590 0 590 -350 0
-350 0 0 -590z"/>
<path d="M8800 7797 c-3 -2 -40 -7 -83 -10 -162 -13 -402 -66 -567 -127 -125
-45 -352 -159 -457 -230 -472 -315 -789 -815 -894 -1405 -27 -151 -37 -496
-20 -671 72 -739 493 -1369 1129 -1688 247 -124 496 -197 791 -231 110 -13
528 -14 591 -2 14 3 48 8 75 12 362 46 744 203 1037 426 337 257 599 648 723
1079 35 122 60 247 70 345 3 33 8 77 11 98 7 48 8 397 0 434 -3 15 -8 60 -11
98 -10 106 -52 294 -98 434 -46 143 -164 383 -250 513 -196 293 -459 524 -772
680 -249 125 -442 183 -770 233 -48 7 -499 18 -505 12z m406 -653 c238 -31
425 -101 620 -233 312 -209 524 -539 603 -936 28 -145 33 -201 32 -378 -2
-296 -53 -521 -173 -762 -71 -142 -138 -235 -253 -351 -311 -314 -736 -461
-1195 -415 -209 21 -341 57 -505 136 -460 222 -751 657 -810 1210 -10 94 -8
321 5 420 60 480 277 847 647 1091 103 68 268 144 380 175 190 53 449 70 649
43z"/>
<path d="M14145 7793 c-171 -16 -401 -84 -570 -169 -256 -128 -489 -344 -600
-556 -16 -32 -33 -58 -37 -58 -5 0 -8 39 -8 88 -1 48 -3 132 -6 187 -2 55 -6
136 -8 180 -3 44 -5 113 -5 153 l-1 72 -331 0 -332 0 8 -197 c4 -108 9 -206
11 -217 2 -12 6 -106 9 -211 3 -104 8 -219 10 -255 2 -36 5 -788 5 -1672 l0
-1608 345 0 345 0 1 1058 c0 581 3 1086 5 1122 26 439 134 783 325 1030 168
218 414 357 709 400 447 66 752 -47 896 -332 60 -118 112 -316 129 -483 4 -33
9 -71 13 -85 3 -14 7 -629 9 -1368 l4 -1342 347 2 347 3 2 1225 c1 674 4 1268
7 1320 23 367 215 715 498 903 214 143 445 196 718 167 149 -16 246 -41 345
-90 265 -132 421 -353 487 -695 21 -109 22 -128 25 -1472 l4 -1363 350 0 350
0 -4 1408 c-2 774 -7 1427 -11 1452 -4 25 -14 92 -22 150 -42 293 -115 504
-239 691 -256 384 -679 569 -1299 569 -465 0 -744 -114 -1047 -427 -93 -96
-182 -207 -244 -305 -17 -27 -32 -48 -35 -48 -3 0 -29 44 -59 98 -30 53 -76
129 -102 167 -55 82 -189 214 -274 272 -178 119 -415 207 -630 231 -79 9 -363
13 -440 5z"/>
<path d="M21786 7789 c-432 -56 -787 -233 -1116 -556 -79 -79 -146 -143 -147
-143 -2 0 -3 135 -3 300 l0 300 -350 0 -350 0 0 -3095 0 -3095 350 0 350 0 0
1380 c0 759 3 1380 8 1380 4 -1 32 -39 62 -87 30 -47 98 -131 149 -185 234
-246 534 -422 870 -508 271 -70 663 -78 946 -20 395 82 742 267 1021 545 415
413 638 973 637 1600 -1 411 -77 740 -249 1076 -109 214 -230 375 -408 546
-394 379 -923 576 -1531 572 -93 -1 -201 -6 -239 -10z m424 -646 c331 -45 591
-173 820 -403 234 -233 376 -532 420 -886 17 -130 14 -400 -5 -524 -52 -345
-188 -625 -414 -851 -327 -326 -774 -468 -1265 -402 -527 71 -947 407 -1141
913 -72 188 -103 374 -103 620 0 183 13 303 49 450 130 522 508 912 1019 1049
174 47 427 61 620 34z"/>
<path d="M37375 7793 c-319 -39 -580 -139 -815 -314 -144 -107 -294 -276 -365
-411 -16 -32 -33 -58 -37 -58 -5 0 -8 46 -9 103 -1 56 -3 131 -4 167 -7 128
-14 306 -15 358 l0 52 -331 0 -332 0 7 -195 c4 -107 9 -205 12 -217 12 -62 16
-524 17 -2063 l2 -1680 348 -3 347 -2 1 1057 c1 582 2 1076 4 1098 2 22 6 81
9 130 29 419 177 795 401 1020 219 220 527 330 900 320 201 -5 321 -32 455
-101 244 -127 406 -397 450 -752 6 -48 13 -98 15 -112 2 -14 4 -618 4 -1343
l1 -1317 348 2 347 3 1 1330 c1 732 -2 1377 -7 1435 -38 475 -170 816 -415
1070 -228 237 -547 382 -923 420 -96 9 -349 12 -416 3z"/>
<path d="M42100 7784 c-546 -63 -979 -259 -1310 -594 -304 -307 -484 -695
-562 -1210 -21 -135 -17 -608 5 -740 128 -757 573 -1312 1279 -1596 418 -168
956 -211 1358 -109 425 107 739 314 966 637 31 43 58 77 61 74 6 -5 5 -721 -1
-751 -2 -11 -7 -56 -10 -100 -4 -44 -18 -136 -32 -205 -63 -322 -180 -556
-374 -750 -236 -237 -536 -359 -958 -391 -648 -49 -1144 134 -1627 602 l-113
110 -241 -276 c-133 -151 -244 -281 -247 -289 -6 -16 170 -175 313 -282 362
-270 770 -426 1273 -490 157 -19 625 -28 765 -13 525 54 893 186 1210 433 107
85 265 250 347 366 82 115 194 337 243 480 58 168 103 364 130 565 22 169 25
430 25 2353 l0 2082 -347 -2 -348 -3 -1 -348 c-1 -191 -4 -351 -7 -353 -3 -3
-13 9 -23 28 -36 71 -141 214 -213 291 -243 258 -599 430 -1000 482 -144 19
-392 18 -561 -1z m510 -635 c178 -20 373 -75 512 -145 487 -243 778 -746 780
-1349 0 -204 -17 -333 -67 -507 -152 -525 -581 -908 -1125 -1004 -107 -19
-360 -26 -465 -13 -509 63 -961 404 -1166 878 -84 197 -119 372 -119 611 0
295 54 522 181 771 215 417 592 685 1059 752 110 16 302 19 410 6z"/>
<path d="M25291 6288 c1 -1323 2 -1411 20 -1535 49 -340 146 -589 316 -811
192 -251 507 -429 876 -494 168 -30 522 -32 672 -4 353 65 697 253 900 493 64
75 175 240 175 260 0 7 4 13 9 13 5 0 12 -87 17 -192 4 -106 8 -202 9 -213 1
-11 3 -77 3 -147 l2 -128 332 0 331 0 -6 198 c-6 177 -10 247 -22 392 -2 25
-4 838 -4 1808 l-1 1762 -350 0 -350 0 -1 -1087 c0 -599 -2 -1106 -4 -1128 -3
-22 -9 -89 -15 -150 -29 -292 -121 -569 -256 -772 -207 -310 -509 -468 -940
-490 -351 -18 -628 89 -791 304 -139 183 -208 404 -229 733 -1 19 -2 610 -3
1313 l-1 1277 -345 0 -345 0 1 -1402z"/>
<path d="M33430 5610 l0 -2080 350 0 350 0 -2 2078 -3 2077 -347 3 -348 2 0
-2080z"/>
</g>
</svg>
