<?xml version="1.0" encoding="UTF-8" standalone="no"?>
<svg
   xmlns:dc="http://purl.org/dc/elements/1.1/"
   xmlns:cc="http://creativecommons.org/ns#"
   xmlns:rdf="http://www.w3.org/1999/02/22-rdf-syntax-ns#"
   xmlns:svg="http://www.w3.org/2000/svg"
   xmlns="http://www.w3.org/2000/svg"
   width="57.845219mm"
   height="26.912004mm"
   viewBox="0 0 57.845219 26.912004"
   version="1.1"
   id="svg8">
  <defs
     id="defs2" />
  <metadata
     id="metadata5">
    <rdf:RDF>
      <cc:Work
         rdf:about="">
        <dc:format>image/svg+xml</dc:format>
        <dc:type
           rdf:resource="http://purl.org/dc/dcmitype/StillImage" />
        <dc:title></dc:title>
      </cc:Work>
    </rdf:RDF>
  </metadata>
  <g
     id="layer1"
     transform="translate(-62.262571,-101.53136)">
    <path
       d="m 93.380702,101.54097 c -1.229677,0.0691 -2.370285,0.28449 -3.513551,0.66336 -2.259946,0.74844 -4.341755,2.12967 -5.98354,3.9682 -1.920954,2.1536 -3.069538,5.02772 -3.226405,8.07598 -0.01462,0.3031 -0.0093,1.40383 0.008,1.64844 0.01728,0.23264 0.06647,0.74711 0.07577,0.79098 0.0027,0.0146 0.0093,0.0625 0.01329,0.10635 0.0226,0.21934 0.08907,0.62082 0.167502,1.01033 0.417425,2.06585 1.310768,4.0001 2.57102,5.56345 1.193784,1.48226 2.759793,2.73586 4.511916,3.6106 0.316393,0.15686 0.34298,0.16883 0.659373,0.30708 1.365273,0.59557 2.9366,0.9864 4.360366,1.08744 0.05849,0.004 0.124962,0.0106 0.146232,0.0133 0.08774,0.012 0.576951,0.0266 0.910625,0.0266 0.331016,0 0.860109,-0.016 0.894673,-0.0266 0.0093,-0.003 0.08242,-0.008 0.162184,-0.0133 0.08109,-0.005 0.167502,-0.0106 0.19276,-0.0133 0.02526,-0.004 0.112998,-0.012 0.19276,-0.0199 0.346969,-0.0359 0.930566,-0.12762 1.30944,-0.20738 1.405154,-0.29512 2.757134,-0.81358 4.014723,-1.53809 0.7737,-0.44535 1.61121,-1.04357 2.26393,-1.6152 0.13826,-0.12097 0.1582,-0.13427 0.17947,-0.11964 0.11167,0.0811 0.55036,0.42407 0.69394,0.54238 1.03691,0.85479 1.99938,1.44504 3.17057,1.94754 1.23366,0.5291 2.688,0.90265 3.98149,1.02363 0.0479,0.004 0.10103,0.0106 0.11964,0.0133 0.0186,0.003 0.0957,0.009 0.17282,0.0133 0.0771,0.004 0.16086,0.0106 0.18612,0.0133 0.19143,0.0226 0.75774,0.0359 1.15656,0.0279 0.25258,-0.004 0.47326,-0.0106 0.49187,-0.0133 0.0186,-0.003 0.10236,-0.009 0.18611,-0.0133 0.14357,-0.008 0.36824,-0.0266 0.50517,-0.0412 0.19011,-0.0213 0.20606,-0.0239 0.47858,-0.0598 1.46232,-0.19674 2.95256,-0.67133 4.24737,-1.3533 0.59822,-0.31507 0.86277,-0.50783 1.07281,-0.77902 0.10103,-0.13161 0.19542,-0.31241 0.23131,-0.44667 0.0359,-0.13427 0.0332,-0.38818 -0.005,-0.52378 -0.1037,-0.35893 -0.36292,-0.68197 -0.65672,-0.81624 -0.18611,-0.0851 -0.44933,-0.11432 -0.68197,-0.0771 -0.26056,0.0439 -0.42673,0.11034 -0.9638,0.38951 -0.75775,0.39349 -1.5966,0.71387 -2.42612,0.9279 -0.65405,0.16883 -1.30944,0.2712 -2.06718,0.32437 -0.17149,0.012 -1.34002,0.008 -1.48226,-0.005 -1.00767,-0.0944 -1.56335,-0.18877 -2.27989,-0.38684 -1.33603,-0.3709 -2.55773,-1.00103 -3.65579,-1.88507 -0.31773,-0.25524 -0.82821,-0.71919 -0.82156,-0.74578 0.003,-0.007 0.0917,-0.1449 0.19808,-0.30576 0.80028,-1.20707 1.43307,-2.56038 1.81327,-3.88046 0.15554,-0.54238 0.29645,-1.16453 0.37223,-1.64311 0.0266,-0.17149 0.097,-0.7285 0.10635,-0.8508 0.005,-0.0545 0.0106,-0.113 0.0133,-0.12895 0.003,-0.016 0.008,-0.10236 0.0133,-0.19276 0.005,-0.0904 0.012,-0.17814 0.016,-0.19675 0.012,-0.0585 0.0159,-1.27753 0.004,-1.44238 -0.007,-0.0877 -0.0146,-0.222 -0.02,-0.29911 -0.004,-0.0771 -0.0106,-0.15819 -0.0133,-0.17946 -0.003,-0.0226 -0.009,-0.0824 -0.0133,-0.13294 -0.0346,-0.39217 -0.11433,-0.92392 -0.20739,-1.38256 -0.39482,-1.94089 -1.22568,-3.79538 -2.39953,-5.35873 -1.14991,-1.53144 -2.54044,-2.73985 -4.27927,-3.71827 -0.26056,-0.14624 -0.910631,-0.46662 -1.189801,-0.58759 -1.470294,-0.63544 -2.963188,-0.99305 -4.539833,-1.08876 -0.305757,-0.0186 -1.159219,-0.0226 -1.438389,-0.007 z m 1.079457,2.45802 c 0.251252,0.005 0.673995,0.0332 0.890684,0.0598 0.0226,0.003 0.07312,0.008 0.112997,0.0133 1.495553,0.17681 2.985788,0.69128 4.254016,1.46631 1.344004,0.82155 2.508544,1.92893 3.392574,3.2264 0.79896,1.17251 1.35863,2.47797 1.66572,3.88844 0.097,0.44401 0.18744,1.02761 0.2127,1.38255 0.005,0.0625 0.0106,0.12762 0.0146,0.14623 0.0346,0.22068 0.0332,1.31343 -0.003,1.74282 -0.15553,1.86778 -0.74977,3.56141 -1.74414,4.96657 -0.0638,0.0904 -0.12231,0.16351 -0.12895,0.16351 -0.016,0 -0.0678,-0.0306 -0.93722,-0.56499 -0.97177,-0.59822 -1.34799,-0.81358 -1.87442,-1.07547 -1.773396,-0.8827 -3.619904,-1.40382 -5.423873,-1.52878 -0.574292,-0.0399 -1.534105,-0.0346 -1.974129,0.012 -0.02925,0.003 -0.08907,0.009 -0.132938,0.0133 -0.434708,0.0399 -0.946519,0.11432 -1.409143,0.20738 -0.914614,0.18345 -1.90766,0.49187 -2.838226,0.88005 -0.81491,0.34032 -1.264241,0.60487 -1.569998,0.92392 -0.19276,0.1994 -0.297781,0.37488 -0.360262,0.59689 -0.03722,0.1356 -0.03988,0.35361 -0.0053,0.48921 0.08508,0.32836 0.346969,0.65273 0.639432,0.79231 0.175478,0.0837 0.248594,0.0984 0.498518,0.097 0.194089,0 0.236629,-0.004 0.372226,-0.0372 0.21536,-0.0532 0.394826,-0.11698 0.903978,-0.32304 0.244606,-0.0984 0.614174,-0.24726 0.820228,-0.33101 0.783005,-0.31506 1.385214,-0.51314 1.891708,-0.62215 0.450659,-0.0957 1.095409,-0.18611 1.548727,-0.21536 0.06647,-0.004 0.138256,-0.009 0.159526,-0.0133 0.0226,-0.004 0.267205,-0.008 0.545046,-0.0106 0.485223,-0.005 0.781675,0.007 1.192454,0.0439 0.485223,0.0452 1.143266,0.15953 1.615196,0.2805 1.486247,0.38153 2.868802,1.03825 4.22743,2.01002 0.20207,0.1449 0.26588,0.20473 0.33633,0.31905 l 0.0386,0.0611 -0.16219,0.1582 c -0.65804,0.64209 -1.350651,1.13662 -2.20943,1.58063 -0.850803,0.4387 -1.84518,0.77902 -2.834238,0.96779 -0.434708,0.0837 -0.893344,0.14358 -1.320075,0.17282 -0.0545,0.004 -0.152878,0.012 -0.219347,0.0159 -0.17282,0.0133 -0.812251,0.0146 -1.083445,0.003 -2.247982,-0.0957 -4.440129,-0.88802 -6.268027,-2.26393 -0.591574,-0.44534 -1.02761,-0.84549 -1.492893,-1.36926 -1.584621,-1.78137 -2.555069,-4.21148 -2.697312,-6.76123 -0.01329,-0.22998 -0.01329,-1.05686 0,-1.28684 0.126291,-2.24931 0.901319,-4.34441 2.2081,-5.97024 1.386543,-1.72421 3.206464,-3.00839 5.25238,-3.70897 0.864097,-0.29513 1.899684,-0.51182 2.705288,-0.56499 0.06248,-0.004 0.13028,-0.0106 0.15022,-0.0133 0.01994,-0.004 0.175478,-0.0106 0.345639,-0.0146 0.170161,-0.005 0.309746,-0.0106 0.312404,-0.012 0.0013,-0.001 0.04387,-0.001 0.09306,0 0.04919,0.003 0.179466,0.005 0.288476,0.007 z"
       id="path833"
       style="fill:#000000;stroke:none;stroke-width:0.00132938" />
    <path
       d="m 75.549728,101.5423 c -0.004,0.004 -0.119644,0.0106 -0.259229,0.016 -0.220677,0.007 -0.606197,0.0332 -0.790981,0.0545 -0.03323,0.004 -0.116986,0.0133 -0.186113,0.0199 -0.202066,0.0213 -0.586257,0.0771 -0.830863,0.12097 -2.329074,0.40945 -4.461399,1.35996 -6.248086,2.78372 -0.739135,0.58892 -1.483588,1.33071 -2.07915,2.07384 -1.175172,1.46497 -2.020658,3.16525 -2.48727,4.99846 -0.143573,0.56499 -0.281829,1.32806 -0.332345,1.8412 -0.008,0.0837 -0.01728,0.16617 -0.01994,0.18345 -0.0027,0.0173 -0.01595,0.17016 -0.02792,0.33899 -0.01728,0.226 -0.02393,0.46661 -0.02526,0.89999 0,0.6288 0.01462,1.02495 0.05318,1.37591 0.0027,0.0293 0.0093,0.0891 0.01329,0.13294 0.09704,0.95715 0.30044,1.91696 0.607527,2.85152 0.979753,2.98977 3.005728,5.54218 5.700381,7.18131 1.17916,0.71786 2.446059,1.24563 3.79538,1.58063 0.55701,0.13826 1.324062,0.27385 1.834544,0.32437 0.04387,0.005 0.127621,0.0133 0.186113,0.0199 0.05849,0.007 0.17282,0.0159 0.252583,0.0213 0.08109,0.004 0.156867,0.0106 0.17016,0.0133 0.07046,0.0133 0.62348,0.0252 1.145926,0.0252 0.587586,0 0.872073,-0.008 1.096738,-0.0332 0.06248,-0.007 0.148891,-0.016 0.19276,-0.0199 0.175479,-0.0173 0.223336,-0.0239 0.478577,-0.0611 1.314757,-0.19675 2.673383,-0.64209 3.98814,-1.30944 0.553022,-0.2805 0.801616,-0.42806 0.96513,-0.57296 0.293793,-0.25923 0.425402,-0.53309 0.425402,-0.88138 0,-0.21536 -0.0771,-0.47725 -0.203395,-0.68729 -0.10768,-0.1808 -0.328357,-0.36425 -0.529094,-0.44136 -0.15022,-0.0585 -0.265876,-0.0784 -0.458636,-0.0784 -0.358932,0 -0.546375,0.0651 -1.276204,0.44534 -0.619492,0.32304 -1.471624,0.64874 -2.267923,0.86809 -0.687289,0.18877 -1.475612,0.32437 -2.119032,0.36558 -0.06514,0.004 -0.160854,0.0106 -0.211371,0.0146 -0.126291,0.009 -0.834851,0.009 -1.005011,0 -0.267206,-0.016 -0.437366,-0.0306 -0.704572,-0.0625 -1.173842,-0.14092 -2.354332,-0.50384 -3.49361,-1.07414 -3.013705,-1.50885 -5.12476,-4.09183 -5.89713,-7.21455 -0.166172,-0.67532 -0.249923,-1.22834 -0.30044,-1.99938 -0.01064,-0.16751 -0.0066,-1.18448 0.0053,-1.28285 0.004,-0.0292 0.01329,-0.13826 0.02127,-0.24328 0.008,-0.10369 0.01728,-0.19941 0.01861,-0.2127 0.0027,-0.012 0.0093,-0.0651 0.01462,-0.11566 0.04254,-0.42806 0.180796,-1.14061 0.315063,-1.63514 0.377544,-1.3892 1.047552,-2.77574 1.874426,-3.8778 1.486247,-1.97944 3.832603,-3.47766 6.32519,-4.03732 0.444013,-0.0997 0.970448,-0.18346 1.296146,-0.20872 0.06647,-0.004 0.123632,-0.0106 0.12762,-0.0133 0.01994,-0.0106 0.483894,-0.0253 0.816239,-0.0253 0.320381,0 0.632785,0.0106 0.764394,0.0266 0.02526,0.004 0.07976,0.009 0.119644,0.0133 0.744453,0.0731 1.50087,0.2486 2.432766,0.56233 0.437366,0.14756 0.83618,0.29645 1.721547,0.64076 1.217712,0.47326 1.298804,0.49852 1.621843,0.49719 0.212701,0 0.284488,-0.016 0.446672,-0.0997 0.301769,-0.15687 0.574292,-0.51846 0.672666,-0.89335 0.02925,-0.11034 0.02792,-0.335 -0.0013,-0.448 -0.07578,-0.29246 -0.303099,-0.57695 -0.639432,-0.80029 -0.252582,-0.16617 -0.978424,-0.55435 -1.398508,-0.74711 -1.084774,-0.49851 -2.157583,-0.83485 -3.274263,-1.03027 -0.289804,-0.0505 -0.72717,-0.10768 -0.970447,-0.12762 -0.0545,-0.004 -0.116985,-0.0106 -0.139585,-0.0133 -0.02127,-0.003 -0.116985,-0.009 -0.212701,-0.0133 -0.09439,-0.005 -0.187442,-0.012 -0.206054,-0.0146 -0.05185,-0.008 -0.896002,-0.0226 -0.903978,-0.016 z"
       id="path835"
       style="fill:#000000;stroke:none;stroke-width:0.00132938" />
    <path
       d="m 111.64239,101.55692 c -0.004,0.003 -0.0877,0.009 -0.18611,0.0146 -0.79231,0.0372 -1.76409,0.22333 -2.70529,0.5158 -0.65671,0.20339 -1.55537,0.57429 -2.33306,0.96247 -0.5836,0.29246 -0.94652,0.50782 -1.11668,0.66469 -0.40546,0.37621 -0.49453,0.92392 -0.22466,1.39452 0.18212,0.31905 0.48921,0.5703 0.78832,0.64475 0.20472,0.0518 0.48655,0.0292 0.71521,-0.0572 0.0824,-0.0319 0.44135,-0.20738 0.56365,-0.27651 0.0279,-0.016 0.21005,-0.10768 0.40413,-0.20472 1.26956,-0.63545 2.53114,-1.03426 3.72227,-1.1765 0.12097,-0.0146 0.27651,-0.0293 0.34564,-0.0332 0.0691,-0.005 0.13559,-0.012 0.14623,-0.016 0.0359,-0.0106 0.85346,-0.0146 1.01697,-0.004 0.90398,0.0612 1.63913,0.21935 2.71859,0.5836 0.48921,0.16484 0.76439,0.26587 1.73484,0.64342 1.31608,0.51048 1.34932,0.51979 1.74813,0.52112 0.20473,0 0.24594,-0.004 0.33899,-0.0306 0.35894,-0.10369 0.60753,-0.3709 0.73648,-0.78965 0.13427,-0.4387 0.005,-0.87473 -0.36159,-1.22968 -0.15155,-0.14623 -0.27252,-0.23131 -0.561,-0.39482 -0.75509,-0.42939 -1.70028,-0.8415 -2.53911,-1.10738 -1.03293,-0.32703 -2.244,-0.54504 -3.30351,-0.59556 -0.0984,-0.005 -0.2034,-0.012 -0.23265,-0.0146 -0.0784,-0.008 -1.40781,-0.0213 -1.41579,-0.0146 z"
       id="path837"
       style="fill:#000000;stroke:none;stroke-width:0.00132938" />
  </g>
</svg>
