<?xml version="1.0" encoding="UTF-8" standalone="no"?>
<svg
   xmlns:dc="http://purl.org/dc/elements/1.1/"
   xmlns:cc="http://creativecommons.org/ns#"
   xmlns:rdf="http://www.w3.org/1999/02/22-rdf-syntax-ns#"
   xmlns:svg="http://www.w3.org/2000/svg"
   xmlns="http://www.w3.org/2000/svg"
   xmlns:sodipodi="http://sodipodi.sourceforge.net/DTD/sodipodi-0.dtd"
   xmlns:inkscape="http://www.inkscape.org/namespaces/inkscape"
   width="51.534046mm"
   height="11.641666mm"
   viewBox="0 0 51.534046 11.641666"
   version="1.1"
   id="svg856"
   inkscape:version="1.0.2 (e86c870879, 2021-01-15, custom)"
   sodipodi:docname="protocol_labs.svg">
  <defs
     id="defs850" />
  <sodipodi:namedview
     id="base"
     pagecolor="#ffffff"
     bordercolor="#666666"
     borderopacity="1.0"
     inkscape:pageopacity="0.0"
     inkscape:pageshadow="2"
     inkscape:zoom="2.8"
     inkscape:cx="98.459446"
     inkscape:cy="9.9066691"
     inkscape:document-units="mm"
     inkscape:current-layer="layer1"
     inkscape:document-rotation="0"
     showgrid="false"
     fit-margin-top="0"
     fit-margin-left="0"
     fit-margin-right="0"
     fit-margin-bottom="0"
     inkscape:window-width="1267"
     inkscape:window-height="967"
     inkscape:window-x="286"
     inkscape:window-y="286"
     inkscape:window-maximized="0" />
  <metadata
     id="metadata853">
    <rdf:RDF>
      <cc:Work
         rdf:about="">
        <dc:format>image/svg+xml</dc:format>
        <dc:type
           rdf:resource="http://purl.org/dc/dcmitype/StillImage" />
        <dc:title></dc:title>
      </cc:Work>
    </rdf:RDF>
  </metadata>
  <g
     inkscape:label="Layer 1"
     inkscape:groupmode="layer"
     id="layer1"
     transform="translate(-55.119882,-109.83988)">
    <g
       id="Logo"
       transform="matrix(0.26458333,0,0,0.26458333,55.060179,109.74517)"
       style="fill:#252a2e;fill-rule:evenodd;stroke:none;stroke-width:1">
      <path
         d="m 70.376823,18.427475 c 0,-2.985111 -2.25449,-4.592479 -4.926478,-4.592479 H 59 v 14.612433 h 3.298235 v -4.968227 h 2.797237 c 3.423484,0 5.281351,-2.29624 5.281351,-5.051727 z m -3.44436,0.208749 c 0,1.252494 -0.814121,2.08749 -1.920491,2.08749 H 62.27736 v -4.13323 h 2.734612 c 1.10637,0 1.920491,0.709746 1.920491,2.04574 z m 12.04482,1.482118 v -3.214735 h -1.001995 c -1.14812,0 -2.25449,0.500998 -2.818112,1.461243 v -1.461243 h -3.110361 v 11.543822 h 3.214735 v -6.137222 c 0,-1.607367 0.939371,-2.21274 2.525864,-2.21274 0.438373,0 1.189869,0.02087 1.189869,0.02087 z m 6.533845,8.475211 c 3.339985,0 5.719724,-2.003991 5.719724,-5.907598 0,-3.924482 -2.379739,-5.928472 -5.719724,-5.928472 -3.31911,0 -5.698849,2.00399 -5.698849,5.928472 0,3.903607 2.379739,5.907598 5.698849,5.907598 z m 0,-9.226707 c 1.398619,0 2.442364,0.93937 2.442364,3.319109 0,2.358865 -1.043745,3.298235 -2.442364,3.298235 -1.356869,0 -2.421489,-0.93937 -2.421489,-3.298235 0,-2.379739 1.06462,-3.319109 2.421489,-3.319109 z m 13.652187,9.038833 v -2.671988 c 0,0 -0.730621,0.06263 -1.398618,0.06263 -0.688872,0 -0.897621,-0.187874 -0.897621,-0.897621 v -5.4066 h 2.442364 v -2.588488 h -2.442364 v -3.068611 h -3.23561 v 3.068611 H 91.961473 V 19.4921 h 1.669993 v 5.5736 c 0,2.150115 0.313123,3.465234 3.005986,3.465234 1.461243,0 2.525863,-0.12525 2.525863,-0.12525 z m 6.679965,0.187874 c 3.33999,0 5.71973,-2.003991 5.71973,-5.907598 0,-3.924482 -2.37974,-5.928472 -5.71973,-5.928472 -3.3191,0 -5.69884,2.00399 -5.69884,5.928472 0,3.903607 2.37974,5.907598 5.69884,5.907598 z m 0,-9.226707 c 1.39862,0 2.44237,0.93937 2.44237,3.319109 0,2.358865 -1.04375,3.298235 -2.44237,3.298235 -1.35686,0 -2.42148,-0.93937 -2.42148,-3.298235 0,-2.379739 1.06462,-3.319109 2.42148,-3.319109 z m 14.61244,4.717728 c -0.20875,1.377744 -1.14812,1.899616 -2.17099,1.899616 -1.31512,0 -2.35887,-0.93937 -2.35887,-3.298235 0,-2.379739 1.02287,-3.319109 2.40062,-3.319109 1.08549,0 1.92049,0.542747 2.08749,1.962241 h 3.23561 c -0.27138,-3.047736 -2.44237,-4.571604 -5.34398,-4.571604 -3.31911,0 -5.69885,2.066615 -5.69885,5.970222 0,3.924482 2.44237,5.865848 5.76148,5.865848 2.96423,0 4.96822,-1.523868 5.30222,-4.508979 z m 9.85295,4.508979 c 3.33999,0 5.71973,-2.003991 5.71973,-5.907598 0,-3.924482 -2.37974,-5.928472 -5.71973,-5.928472 -3.31911,0 -5.69885,2.00399 -5.69885,5.928472 0,3.903607 2.37974,5.907598 5.69885,5.907598 z m 0,-9.226707 c 1.39862,0 2.44237,0.93937 2.44237,3.319109 0,2.358865 -1.04375,3.298235 -2.44237,3.298235 -1.35687,0 -2.42149,-0.93937 -2.42149,-3.298235 0,-2.379739 1.06462,-3.319109 2.42149,-3.319109 z m 10.50008,9.080583 V 13 h -3.21474 v 15.447429 z m 17.24267,0 V 25.566692 H 150.9957 V 13.834996 h -3.29823 v 14.612433 z m 8.70483,-4.42548 c 0,0.981121 -0.66799,2.233615 -2.56761,2.233615 -1.23162,0 -1.56562,-0.772371 -1.56562,-1.294244 0,-0.730622 0.56363,-1.18987 1.336,-1.335994 0.79324,-0.166999 2.79723,-0.417498 2.79723,-0.417498 z m -7.05571,-3.339984 h 3.11036 c 0,-0.459248 0.12525,-1.419494 2.02486,-1.419494 1.54475,0 1.92049,0.542748 1.92049,1.335994 v 0.396623 l -3.79923,0.542748 c -1.06462,0.146124 -3.63223,0.793246 -3.63223,3.423484 0,2.317114 1.77437,3.632233 4.1541,3.632233 1.98312,0 2.85987,-0.667997 3.36086,-1.189869 v 1.043745 h 3.40261 c 0,0 -0.2505,-0.876746 -0.2505,-1.711742 v -6.220722 c 0,-1.669992 -0.91849,-3.757482 -5.1561,-3.757482 -4.38373,0 -5.09347,2.233614 -5.13522,3.924482 z m 15.59355,7.765464 v -1.127245 c 0.5845,0.730622 1.60737,1.273369 2.88074,1.273369 3.13123,0 5.28135,-2.003991 5.28135,-5.907598 0,-3.924482 -2.19187,-5.928472 -5.09348,-5.928472 -1.27337,0 -2.48411,0.542747 -3.06861,1.273369 V 13 h -3.21474 v 15.447429 z m 2.44236,-9.080583 c 1.39862,0 2.44237,0.93937 2.44237,3.319109 0,2.358865 -1.04375,3.298235 -2.44237,3.298235 -1.56561,0 -2.42149,-0.730621 -2.42149,-3.298235 0,-2.588488 0.85588,-3.319109 2.42149,-3.319109 z m 13.75657,0.960245 h 3.15211 c 0,-0.897621 -0.45925,-3.569608 -4.96823,-3.569608 -2.75549,0 -4.94735,1.231619 -4.94735,3.611358 0,2.692863 2.17099,3.256485 4.6551,3.590484 l 0.62625,0.0835 c 0.89762,0.12525 1.73261,0.313124 1.73261,1.022871 0,0.834996 -0.89762,1.168994 -1.92049,1.168994 -1.10637,0 -2.08749,-0.333998 -2.08749,-1.440368 h -3.23561 c 0,0.605372 0.27138,3.799232 5.13523,3.799232 4.3211,0 5.36485,-2.108365 5.36485,-3.882732 0,-4.655103 -7.05572,-2.797237 -7.05572,-4.571604 0,-0.793246 0.87675,-1.043745 1.69087,-1.043745 1.10637,0 1.85787,0.438373 1.85787,1.231618 z"
         id="Lettering" />
      <path
         d="m 20.945819,32.837617 c 0.474144,0.273685 0.858514,0.942594 0.858514,1.487616 v 9.419686 c 0,0.547903 -0.386863,0.768785 -0.858514,0.49657 L 12.794204,39.536742 C 12.32006,39.263087 11.93569,38.594178 11.93569,38.049126 v -9.420212 c 0,-0.547932 0.386863,-0.768815 0.858514,-0.496569 z m 12.573535,-8.30996 c -3.1e-5,0.547786 -0.387063,1.21523 -0.858891,1.487564 l -8.154664,4.706788 c -0.474321,0.273773 -0.858835,0.04879 -0.858835,-0.496087 v -9.41715 c 0,-0.547754 0.387032,-1.215198 0.85889,-1.487563 l 8.15519,-4.707313 c 0.474352,-0.273804 0.858865,-0.04882 0.858835,0.496087 z M 31.727928,12.024598 c 0.48204,0.278292 0.48561,0.72739 0.01355,0.999871 l -8.158723,4.70933 c -0.474557,0.273922 -1.252321,0.269092 -1.732121,-0.0079 L 2.012138,6.2745357 C 1.5300709,5.9962715 1.5265268,5.5471474 1.9986485,5.2746063 L 10.158397,0.56423971 c 0.474617,-0.27398153 1.252407,-0.26917827 1.732179,0.007805 z M 10.093059,36.981022 c 0,0.548904 -0.386814,0.770599 -0.8584063,0.498382 L 1.0840551,32.774638 C 0.60997031,32.500982 0.22564865,31.825334 0.22564865,31.271382 V 8.3668791 c 0,-0.5565698 0.39295896,-0.7809397 0.87263605,-0.5040663 L 20.931697,19.310818 c 0.481943,0.278182 0.872636,0.950712 0.872636,1.495704 v 9.419175 c 0,0.547872 -0.389655,0.767126 -0.861158,0.495004 l -9.988958,-5.765007 c -0.475604,-0.274489 -0.861158,-0.0473 -0.861158,0.496873 z M 35.353843,14.053106 c 5e-5,-0.548929 0.387074,-1.2173 0.858872,-1.489635 l 8.154153,-4.7067959 c 0.474291,-0.2737739 0.858781,-0.041894 0.858781,0.5120725 V 31.273822 c 0,0.556584 -0.392959,1.234603 -0.872636,1.511476 L 24.5196,44.233304 c -0.481943,0.278181 -0.872636,0.05665 -0.872636,-0.488373 v -9.419695 c 0,-0.547902 0.389471,-1.216889 0.860751,-1.488937 l 9.984236,-5.763434 c 0.47538,-0.274415 0.860792,-0.9466 0.860841,-1.490795 z M 25.419799,6.2630112 C 24.94527,5.9890585 24.947741,5.5435273 25.419745,5.2711055 l 8.157718,-4.70830659 c 0.474498,-0.27386171 1.246307,-0.27239748 1.71831,5.412e-5 l 8.157698,4.70882047 c 0.474498,0.2738916 0.472027,0.7194231 5.3e-5,0.9919057 l -8.157192,4.7093568 c -0.474468,0.273923 -1.246277,0.272458 -1.71831,-5.4e-5 z"
         id="Shape" />
    </g>
  </g>
</svg>
